solid pipe
facet normal 0.9658537446628133 -0.012216513930512611 -0.25879973088897656
  outer loop
    vertex 15 0 0
    vertex 0 -1185.744161426042 -0.00829252739014805
    vertex 12.99038105676658 0 -7.499999999999999
  endloop
endfacet
facet normal -0.003941679216136497 0.006361154335029571 0.999971999048215
  outer loop
    vertex 12.99038105676658 0 -7.499999999999999
    vertex 0 -1185.744161426042 -0.00829252739014805
    vertex 7.499983633033392 -1183.7345514520443 0.00848703286338646
  endloop
endfacet
facet normal 0.7070854650305003 -0.00776468191250789 -0.7070854650305001
  outer loop
    vertex 12.99038105676658 0 -7.499999999999999
    vertex 7.499983633033392 -1183.7345514520443 0.00848703286338646
    vertex 7.500000000000002 0 -12.990381056766578
  endloop
endfacet
facet normal -0.013621144259381946 0.010979555135303258 0.99984694518616
  outer loop
    vertex 7.500000000000002 0 -12.990381056766578
    vertex 7.499983633033392 -1183.7345514520443 0.00848703286338646
    vertex 12.99035270834885 -1178.244177575407 0.022992499515040173
  endloop
endfacet
facet normal 0.25880745908788 -0.009461915357095908 -0.9658825866937711
  outer loop
    vertex 7.500000000000002 0 -12.990381056766578
    vertex 12.99035270834885 -1178.244177575407 0.022992499515040173
    vertex 9.18485099360515e-16 0 -15
  endloop
endfacet
facet normal -0.04962768343372369 0.012186508689609224 0.9986934374686559
  outer loop
    vertex 9.18485099360515e-16 0 -15
    vertex 12.99035270834885 -1178.244177575407 0.022992499515040173
    vertex 14.999967266066786 -1170.7441810425205 0.031337144489665895
  endloop
endfacet
facet normal -0.25878708081014157 -0.015715782889853862 -0.9658065339258811
  outer loop
    vertex 9.18485099360515e-16 0 -15
    vertex 14.999967266066786 -1170.7441810425205 0.031337144489665895
    vertex -7.4999999999999964 0 -12.99038105676658
  endloop
endfacet
facet normal -0.04464185778269323 -0.01196866334812206 -0.9989313568165576
  outer loop
    vertex -7.4999999999999964 0 -12.99038105676658
    vertex 14.999967266066786 -1170.7441810425205 0.031337144489665895
    vertex 12.990352708348851 -1163.2441798676077 0.031285026905188223
  endloop
endfacet
facet normal -0.7069601084910317 -0.02036688500230176 -0.7069601084910321
  outer loop
    vertex -7.4999999999999964 0 -12.99038105676658
    vertex 12.990352708348851 -1163.2441798676077 0.031285026905188223
    vertex -12.99038105676658 0 -7.499999999999999
  endloop
endfacet
facet normal -0.00505072641468122 -0.0065869636731324555 -0.9999655504427404
  outer loop
    vertex -12.99038105676658 0 -7.499999999999999
    vertex 12.990352708348851 -1163.2441798676077 0.031285026905188223
    vertex 7.499983633033392 -1157.7537933087187 0.022850111626279427
  endloop
endfacet
facet normal -0.965755588950349 -0.018773765261905124 -0.25877343014508936
  outer loop
    vertex -12.99038105676658 0 -7.499999999999999
    vertex 7.499983633033392 -1157.7537933087187 0.022850111626279427
    vertex -15 0 -1.83697019872103e-15
  endloop
endfacet
facet normal 0.0019458562231703409 0.000018079547595846418 -0.999998106656552
  outer loop
    vertex -15 0 -1.83697019872103e-15
    vertex 7.499983633033392 -1157.7537933087187 0.022850111626279427
    vertex 1.8369661899703765e-15 -1155.7441660104432 0.008292527390148054
  endloop
endfacet
facet normal -0.965849954453707 -0.012533572435302702 0.25879871530550724
  outer loop
    vertex -15 0 -1.83697019872103e-15
    vertex 1.8369661899703765e-15 -1155.7441660104432 0.008292527390148054
    vertex -12.990381056766582 0 7.499999999999996
  endloop
endfacet
facet normal 0.0004988835075031606 0.0064876205184158315 -0.9999788307235584
  outer loop
    vertex -12.990381056766582 0 7.499999999999996
    vertex 1.8369661899703765e-15 -1155.7441660104432 0.008292527390148054
    vertex -7.499983633033389 -1157.7537759844408 -0.008487032863386451
  endloop
endfacet
facet normal -0.7070844976439262 -0.007938915749256472 0.7070844976439256
  outer loop
    vertex -12.990381056766582 0 7.499999999999996
    vertex -7.499983633033389 -1157.7537759844408 -0.008487032863386451
    vertex -7.500000000000007 0 12.990381056766577
  endloop
endfacet
facet normal -0.008584830346216064 0.011226540558566056 -0.9999001277502736
  outer loop
    vertex -7.500000000000007 0 12.990381056766577
    vertex -7.499983633033389 -1157.7537759844408 -0.008487032863386451
    vertex -12.990352708348846 -1163.244149861078 -0.022992499515040163
  endloop
endfacet
facet normal -0.2588071583788581 -0.009583915574502083 0.9658814644324227
  outer loop
    vertex -7.500000000000007 0 12.990381056766577
    vertex -12.990352708348846 -1163.244149861078 -0.022992499515040163
    vertex -2.7554552980815444e-15 0 15
  endloop
endfacet
facet normal -0.045909133032396784 0.01341264049357032 -0.9988555714312275
  outer loop
    vertex -2.7554552980815444e-15 0 15
    vertex -12.990352708348846 -1163.244149861078 -0.022992499515040163
    vertex -14.999967266066786 -1170.7441463939647 -0.031337144489665895
  endloop
endfacet
facet normal 0.25878708080824997 -0.01571578335485272 0.9658065339188214
  outer loop
    vertex -2.7554552980815444e-15 0 15
    vertex -14.999967266066786 -1170.7441463939647 -0.031337144489665895
    vertex 7.500000000000002 0 12.990381056766578
  endloop
endfacet
facet normal -0.038725195153243006 -0.01036941707472296 0.9991960940925828
  outer loop
    vertex 7.500000000000002 0 12.990381056766578
    vertex -14.999967266066786 -1170.7441463939647 -0.031337144489665895
    vertex -12.99035270834885 -1178.2441475688775 -0.031285026905188223
  endloop
endfacet
facet normal 0.7069638181099032 -0.02010770416866659 0.7069638181099037
  outer loop
    vertex 7.500000000000002 0 12.990381056766578
    vertex -12.99035270834885 -1178.2441475688775 -0.031285026905188223
    vertex 12.990381056766577 0 7.500000000000007
  endloop
endfacet
facet normal -0.007756853693652263 -0.006220598670754111 0.9999505664646391
  outer loop
    vertex 12.990381056766577 0 7.500000000000007
    vertex -12.99035270834885 -1178.2441475688775 -0.031285026905188223
    vertex -7.499983633033399 -1183.7345341277662 -0.02285011162627944
  endloop
endfacet
facet normal 0.96576297785185 -0.018361857000376004 0.2587754099952796
  outer loop
    vertex 12.990381056766577 0 7.500000000000007
    vertex -7.499983633033399 -1183.7345341277662 -0.02285011162627944
    vertex 15 0 0
  endloop
endfacet
facet normal -0.0019363222809692222 0.000017501517651569776 0.999998125173103
  outer loop
    vertex 15 0 0
    vertex -7.499983633033399 -1183.7345341277662 -0.02285011162627944
    vertex 0 -1185.744161426042 -0.00829252739014805
  endloop
endfacet
facet normal 0.2588184812970658 -0.9659259773400115 0.000006230874021115604
  outer loop
    vertex 0 -1185.744161426042 -0.00829252739014805
    vertex 7.560267946223046 -1183.7417437937393 -3619.06068213837
    vertex 7.499983633033392 -1183.7345514520443 0.00848703286338646
  endloop
endfacet
facet normal 0.2686540236938359 -0.9632367390793853 0.000006389364221483589
  outer loop
    vertex 7.499983633033392 -1183.7345514520443 0.00848703286338646
    vertex 7.560267946223046 -1183.7417437937393 -3619.06068213837
    vertex 14.860404441471617 -1181.7056916220479 -3620.7491924290975
  endloop
endfacet
facet normal 0.7071053316432806 -0.7071074641399054 0.0010412104871544202
  outer loop
    vertex 7.499983633033392 -1183.7345514520443 0.00848703286338646
    vertex 14.860404441471617 -1181.7056916220479 -3620.7491924290975
    vertex 12.99035270834885 -1178.244177575407 0.022992499515040173
  endloop
endfacet
facet normal 0.7178951031103049 -0.6961505203586559 0.0010363081671330098
  outer loop
    vertex 12.99035270834885 -1178.244177575407 0.022992499515040173
    vertex 14.860404441471617 -1181.7056916220479 -3620.7491924290975
    vertex 20.20447525818137 -1176.1964435449518 -3621.9229304867613
  endloop
endfacet
facet normal 0.9659239170730411 -0.2588200661374611 0.0017775800609072753
  outer loop
    vertex 12.99035270834885 -1178.244177575407 0.022992499515040173
    vertex 20.20447525818137 -1176.1964435449518 -3621.9229304867613
    vertex 14.999967266066786 -1170.7441810425205 0.031337144489665895
  endloop
endfacet
facet normal 0.967701202935596 -0.2520937303998507 0.0017700084993638075
  outer loop
    vertex 14.999967266066786 -1170.7441810425205 0.031337144489665895
    vertex 20.20447525818137 -1176.1964435449518 -3621.9229304867613
    vertex 22.16054093672019 -1168.6901981356118 -3622.267394146684
  endloop
endfacet
facet normal 0.9659239321027041 0.25881794649033396 0.002056201784193008
  outer loop
    vertex 14.999967266066786 -1170.7441810425205 0.031337144489665895
    vertex 22.16054093672019 -1168.6901981356118 -3622.267394146684
    vertex 12.990352708348851 -1163.2441798676077 0.031285026905188223
  endloop
endfacet
facet normal 0.9676022886040393 0.25247084230781874 0.0020699933830596855
  outer loop
    vertex 12.990352708348851 -1163.2441798676077 0.031285026905188223
    vertex 22.16054093672019 -1168.6901981356118 -3622.267394146684
    vertex 20.20447525818137 -1161.1982477896504 -3621.6902846493686
  endloop
endfacet
facet normal 0.7071053626330905 0.7071058884696005 0.0018079344961895096
  outer loop
    vertex 12.990352708348851 -1163.2441798676077 0.031285026905188223
    vertex 20.20447525818137 -1161.1982477896504 -3621.6902846493686
    vertex 7.499983633033392 -1157.7537933087187 0.022850111626279427
  endloop
endfacet
facet normal 0.7155302563433849 0.6985793054680605 0.0018455971750203348
  outer loop
    vertex 7.499983633033392 -1157.7537933087187 0.022850111626279427
    vertex 20.20447525818137 -1161.1982477896504 -3621.6902846493686
    vertex 14.860404441471617 -1155.7280545520018 -3620.346238018564
  endloop
endfacet
facet normal 0.2588184970829681 0.9659253841735463 0.0010666662553871495
  outer loop
    vertex 7.499983633033392 -1157.7537933087187 0.022850111626279427
    vertex 14.860404441471617 -1155.7280545520018 -3620.346238018564
    vertex 1.8369661899703765e-15 -1155.7441660104432 0.008292527390148054
  endloop
endfacet
facet normal 0.2623442114285169 0.9649737539846961 0.001081133956969352
  outer loop
    vertex 1.8369661899703765e-15 -1155.7441660104432 0.008292527390148054
    vertex 14.860404441471617 -1155.7280545520018 -3620.346238018564
    vertex 7.560267946223048 -1153.745352283136 -3618.5953904635844
  endloop
endfacet
facet normal -0.2588184792856956 0.9659259778722651 -0.000007193644560338991
  outer loop
    vertex 1.8369661899703765e-15 -1155.7441660104432 0.008292527390148054
    vertex 7.560267946223048 -1153.745352283136 -3618.5953904635844
    vertex -7.499983633033389 -1157.7537759844408 -0.008487032863386451
  endloop
endfacet
facet normal -0.26866362922496845 0.9632340586354495 -0.000051150247520736515
  outer loop
    vertex -7.499983633033389 -1157.7537759844408 -0.008487032863386451
    vertex 7.560267946223048 -1153.745352283136 -3618.5953904635844
    vertex 0.26013145097447854 -1155.7814044548275 -3616.9068801728567
  endloop
endfacet
facet normal -0.7071051430031625 0.7071075140563486 -0.0011315049836235587
  outer loop
    vertex -7.499983633033389 -1157.7537759844408 -0.008487032863386451
    vertex 0.26013145097447854 -1155.7814044548275 -3616.9068801728567
    vertex -12.990352708348846 -1163.244149861078 -0.022992499515040163
  endloop
endfacet
facet normal -0.7179117365706277 0.6961331147721055 -0.001193738594576324
  outer loop
    vertex -12.990352708348846 -1163.244149861078 -0.022992499515040163
    vertex 0.26013145097447854 -1155.7814044548275 -3616.9068801728567
    vertex -5.083939365735272 -1161.2906525319236 -3615.733142115193
  endloop
endfacet
facet normal -0.9659235101886132 0.25882017379976135 -0.0019723334325922833
  outer loop
    vertex -12.990352708348846 -1163.244149861078 -0.022992499515040163
    vertex -5.083939365735272 -1161.2906525319236 -3615.733142115193
    vertex -14.999967266066786 -1170.7441463939647 -0.031337144489665895
  endloop
endfacet
facet normal -0.9677033101578143 0.25208396255153087 -0.001994826791344478
  outer loop
    vertex -14.999967266066786 -1170.7441463939647 -0.031337144489665895
    vertex -5.083939365735272 -1161.2906525319236 -3615.733142115193
    vertex -7.040005044274098 -1168.7968979412635 -3615.38867845527
  endloop
endfacet
facet normal -0.9659234936108926 -0.25881783045554374 -0.002266082260958583
  outer loop
    vertex -14.999967266066786 -1170.7441463939647 -0.031337144489665895
    vertex -7.040005044274098 -1168.7968979412635 -3615.38867845527
    vertex -12.99035270834885 -1178.2441475688775 -0.031285026905188223
  endloop
endfacet
facet normal -0.9676053366514398 -0.2524576002847006 -0.002252230482045548
  outer loop
    vertex -12.99035270834885 -1178.2441475688775 -0.031285026905188223
    vertex -7.040005044274098 -1168.7968979412635 -3615.38867845527
    vertex -5.083939365735276 -1176.288848287225 -3615.9657879525857
  endloop
endfacet
facet normal -0.7071051107849546 -0.7071058218219588 -0.0019284831576343753
  outer loop
    vertex -12.99035270834885 -1178.2441475688775 -0.031285026905188223
    vertex -5.083939365735276 -1176.288848287225 -3615.9657879525857
    vertex -7.499983633033399 -1183.7345341277662 -0.02285011162627944
  endloop
endfacet
facet normal -0.7155388713344444 -0.698570290288726 -0.0019165425523224714
  outer loop
    vertex -7.499983633033399 -1183.7345341277662 -0.02285011162627944
    vertex -5.083939365735276 -1176.288848287225 -3615.9657879525857
    vertex 0.2601314509744679 -1181.7590415248735 -3617.3098345833905
  endloop
endfacet
facet normal -0.2588184634689414 -0.9659253752784606 -0.00108275608570935
  outer loop
    vertex -7.499983633033399 -1183.7345341277662 -0.02285011162627944
    vertex 0.2601314509744679 -1181.7590415248735 -3617.3098345833905
    vertex 0 -1185.744161426042 -0.00829252739014805
  endloop
endfacet
facet normal -0.2623443959566776 -0.9649737028904346 -0.0010819612051594669
  outer loop
    vertex 0 -1185.744161426042 -0.00829252739014805
    vertex 0.2601314509744679 -1181.7590415248735 -3617.3098345833905
    vertex 7.560267946223046 -1183.7417437937393 -3619.06068213837
  endloop
endfacet
facet normal 0.2471748761445352 -0.9643778949202134 -0.09423298993554018
  outer loop
    vertex 7.560267946223046 -1183.7417437937393 -3619.06068213837
    vertex -80.20704306145107 -1163.6819491810688 -4054.5673635779845
    vertex 14.860404441471617 -1181.7056916220479 -3620.7491924290975
  endloop
endfacet
facet normal 0.9697021359006787 0.12953406710465873 -0.20711999683513813
  outer loop
    vertex 14.860404441471617 -1181.7056916220479 -3620.7491924290975
    vertex -80.20704306145107 -1163.6819491810688 -4054.5673635779845
    vertex -82.01821842230773 -1161.8254977571085 -4061.8859563539013
  endloop
endfacet
facet normal 0.6860380806220903 -0.7043301203795742 -0.18240294258167206
  outer loop
    vertex 14.860404441471617 -1181.7056916220479 -3620.7491924290975
    vertex -82.01821842230773 -1161.8254977571085 -4061.8859563539013
    vertex 20.20447525818137 -1176.1964435449518 -3621.9229304867613
  endloop
endfacet
facet normal 0.37257234087340374 0.9262932628337343 -0.05630845447130317
  outer loop
    vertex 20.20447525818137 -1176.1964435449518 -3621.9229304867613
    vertex -82.01821842230773 -1161.8254977571085 -4061.8859563539013
    vertex -87.33751192765887 -1160.0116613055839 -4067.243538105779
  endloop
endfacet
facet normal 0.937718631884832 -0.25517932815179306 -0.2357271259317401
  outer loop
    vertex 20.20447525818137 -1176.1964435449518 -3621.9229304867613
    vertex -87.33751192765887 -1160.0116613055839 -4067.243538105779
    vertex 22.16054093672019 -1168.6901981356118 -3622.267394146684
  endloop
endfacet
facet normal 0.1772983398460542 0.9838536291283698 -0.02444044064187492
  outer loop
    vertex 22.16054093672019 -1168.6901981356118 -3622.267394146684
    vertex -87.33751192765887 -1160.0116613055839 -4067.243538105779
    vertex -94.73962317844156 -1158.7264558388838 -4069.204549129818
  endloop
endfacet
facet normal 0.9349465494020769 0.26249077838618484 -0.23869130906542163
  outer loop
    vertex 22.16054093672019 -1168.6901981356118 -3622.267394146684
    vertex -94.73962317844156 -1158.7264558388838 -4069.204549129818
    vertex 20.20447525818137 -1161.1982477896504 -3621.6902846493686
  endloop
endfacet
facet normal 0.05276966199439924 0.9985743573194761 -0.008038387710978739
  outer loop
    vertex 20.20447525818137 -1161.1982477896504 -3621.6902846493686
    vertex -94.73962317844156 -1158.7264558388838 -4069.204549129818
    vertex -102.24116244272322 -1158.3142511239184 -4067.243538105779
  endloop
endfacet
facet normal 0.6805224992524666 0.7096548371209219 -0.1824257113513732
  outer loop
    vertex 20.20447525818137 -1161.1982477896504 -3621.6902846493686
    vertex -102.24116244272322 -1158.3142511239184 -4067.243538105779
    vertex 14.860404441471617 -1155.7280545520018 -3620.346238018564
  endloop
endfacet
facet normal -0.08577041963168586 0.996174793413278 0.016709760148411752
  outer loop
    vertex 14.860404441471617 -1155.7280545520018 -3620.346238018564
    vertex -102.24116244272322 -1158.3142511239184 -4067.243538105779
    vertex -107.83209833264927 -1158.885497081179 -4061.8859563539013
  endloop
endfacet
facet normal 0.24460188438823297 0.9667278120917963 -0.07488160977125252
  outer loop
    vertex 14.860404441471617 -1155.7280545520018 -3620.346238018564
    vertex -107.83209833264927 -1158.885497081179 -4061.8859563539013
    vertex 7.560267946223048 -1153.745352283136 -3618.5953904635844
  endloop
endfacet
facet normal -0.34074456984966994 0.9369284404138263 0.07783466876449491
  outer loop
    vertex 7.560267946223048 -1153.745352283136 -3618.5953904635844
    vertex -107.83209833264927 -1158.885497081179 -4061.8859563539013
    vertex -110.01434409157979 -1160.287128817738 -4054.5673635779845
  endloop
endfacet
facet normal -0.25649335087916714 0.9649973644970818 0.05469229807260477
  outer loop
    vertex 7.560267946223048 -1153.745352283136 -3618.5953904635844
    vertex -110.01434409157979 -1160.287128817738 -4054.5673635779845
    vertex 0.26013145097447854 -1155.7814044548275 -3616.9068801728567
  endloop
endfacet
facet normal -0.969601277084254 0.01648447092766105 0.24413444184469096
  outer loop
    vertex 0.26013145097447854 -1155.7814044548275 -3616.9068801728567
    vertex -110.01434409157979 -1160.287128817738 -4054.5673635779845
    vertex -108.20316873072314 -1162.1435802416984 -4047.2487708020676
  endloop
endfacet
facet normal -0.6904654550836875 0.7046204503283549 0.16360769026895705
  outer loop
    vertex 0.26013145097447854 -1155.7814044548275 -3616.9068801728567
    vertex -108.20316873072314 -1162.1435802416984 -4047.2487708020676
    vertex -5.083939365735272 -1161.2906525319236 -3615.733142115193
  endloop
endfacet
facet normal -0.4096050481044425 -0.9068012312781653 0.09967563152426383
  outer loop
    vertex -5.083939365735272 -1161.2906525319236 -3615.733142115193
    vertex -108.20316873072314 -1162.1435802416984 -4047.2487708020676
    vertex -102.883875225372 -1163.957416693223 -4041.89118905019
  endloop
endfacet
facet normal -0.9426596353027119 0.2555035392993 0.21473414580939176
  outer loop
    vertex -5.083939365735272 -1161.2906525319236 -3615.733142115193
    vertex -102.883875225372 -1163.957416693223 -4041.89118905019
    vertex -7.040005044274098 -1168.7968979412635 -3615.38867845527
  endloop
endfacet
facet normal -0.17843294069730278 -0.9835264626779312 0.028937568770525616
  outer loop
    vertex -7.040005044274098 -1168.7968979412635 -3615.38867845527
    vertex -102.883875225372 -1163.957416693223 -4041.89118905019
    vertex -95.48176397458931 -1165.242622159923 -4039.9301780261508
  endloop
endfacet
facet normal -0.945272778780088 -0.2618004966120428 0.19473025874542102
  outer loop
    vertex -7.040005044274098 -1168.7968979412635 -3615.38867845527
    vertex -95.48176397458931 -1165.242622159923 -4039.9301780261508
    vertex -5.083939365735276 -1176.288848287225 -3615.9657879525857
  endloop
endfacet
facet normal -0.058394485642869844 -0.9982015305673669 -0.013556858761181097
  outer loop
    vertex -5.083939365735276 -1176.288848287225 -3615.9657879525857
    vertex -95.48176397458931 -1165.242622159923 -4039.9301780261508
    vertex -87.98022471030762 -1165.6548268748884 -4041.89118905019
  endloop
endfacet
facet normal -0.6957201204845844 -0.7086021174389294 0.11771386118032535
  outer loop
    vertex -5.083939365735276 -1176.288848287225 -3615.9657879525857
    vertex -87.98022471030762 -1165.6548268748884 -4041.89118905019
    vertex 0.2601314509744679 -1181.7590415248735 -3617.3098345833905
  endloop
endfacet
facet normal 0.05474563160335347 -0.997287238291463 -0.049204472980983176
  outer loop
    vertex 0.2601314509744679 -1181.7590415248735 -3617.3098345833905
    vertex -87.98022471030762 -1165.6548268748884 -4041.89118905019
    vertex -82.38928882038161 -1165.0835809176278 -4047.2487708020676
  endloop
endfacet
facet normal -0.2593134839776975 -0.9657136851164555 0.012393361373892022
  outer loop
    vertex 0.2601314509744679 -1181.7590415248735 -3617.3098345833905
    vertex -82.38928882038161 -1165.0835809176278 -4047.2487708020676
    vertex 7.560267946223046 -1183.7417437937393 -3619.06068213837
  endloop
endfacet
facet normal 0.27808020747184986 -0.9553336849805961 -0.10004473276394031
  outer loop
    vertex 7.560267946223046 -1183.7417437937393 -3619.06068213837
    vertex -82.38928882038161 -1165.0835809176278 -4047.2487708020676
    vertex -80.20704306145107 -1163.6819491810688 -4054.5673635779845
  endloop
endfacet
facet normal 0.9613952449812264 -0.08880293336552814 -0.26044811758422304
  outer loop
    vertex -80.20704306145107 -1163.6819491810688 -4054.5673635779845
    vertex -137.09194800131272 -1545.2380997134874 -4134.451111260385
    vertex -82.01821842230773 -1161.8254977571085 -4061.8859563539013
  endloop
endfacet
facet normal 0.15345884040199453 -0.20499390244029358 0.9666581010185424
  outer loop
    vertex -82.01821842230773 -1161.8254977571085 -4061.8859563539013
    vertex -137.09194800131272 -1545.2380997134874 -4134.451111260385
    vertex -129.60087493274364 -1543.3542972246737 -4135.240845874988
  endloop
endfacet
facet normal 0.716428792130441 0.04451284215757038 -0.6962387469033684
  outer loop
    vertex -82.01821842230773 -1161.8254977571085 -4061.8859563539013
    vertex -129.60087493274364 -1543.3542972246737 -4135.240845874988
    vertex -87.33751192765887 -1160.0116613055839 -4067.243538105779
  endloop
endfacet
facet normal 0.42840943881749355 -0.20339639366538356 0.8803949453376005
  outer loop
    vertex -87.33751192765887 -1160.0116613055839 -4067.243538105779
    vertex -129.60087493274364 -1543.3542972246737 -4135.240845874988
    vertex -124.11702884334018 -1538.0501981993943 -4136.683944587748
  endloop
endfacet
facet normal 0.27713369098071994 0.14743861305221354 -0.949451827479753
  outer loop
    vertex -87.33751192765887 -1160.0116613055839 -4067.243538105779
    vertex -124.11702884334018 -1538.0501981993943 -4136.683944587748
    vertex -94.73962317844156 -1158.7264558388838 -4069.204549129818
  endloop
endfacet
facet normal 0.8922857402943072 -0.14515435028276086 0.4275001429958004
  outer loop
    vertex -94.73962317844156 -1158.7264558388838 -4069.204549129818
    vertex -124.11702884334018 -1538.0501981993943 -4136.683944587748
    vertex -122.10980186417456 -1530.7470316880476 -4138.3937302639815
  endloop
endfacet
facet normal -0.23806853762525637 0.1944912054012315 -0.9515758206336202
  outer loop
    vertex -94.73962317844156 -1158.7264558388838 -4069.204549129818
    vertex -122.10980186417456 -1530.7470316880476 -4138.3937302639815
    vertex -102.24116244272322 -1158.3142511239184 -4067.243538105779
  endloop
endfacet
facet normal 0.7703685355400197 0.07975349236629653 -0.6325912581638357
  outer loop
    vertex -102.24116244272322 -1158.3142511239184 -4067.243538105779
    vertex -122.10980186417456 -1530.7470316880476 -4138.3937302639815
    vertex -124.11702884334018 -1523.4016752595387 -4139.912067212512
  endloop
endfacet
facet normal -0.6900407862931407 0.1808399237137064 -0.7008142658673302
  outer loop
    vertex -102.24116244272322 -1158.3142511239184 -4067.243538105779
    vertex -124.11702884334018 -1523.4016752595387 -4139.912067212512
    vertex -107.83209833264927 -1158.885497081179 -4061.8859563539013
  endloop
endfacet
facet normal 0.3356881102715922 0.18280275755649888 -0.9240652814882871
  outer loop
    vertex -107.83209833264927 -1158.885497081179 -4061.8859563539013
    vertex -124.11702884334018 -1523.4016752595387 -4139.912067212512
    vertex -129.60087493274364 -1517.9823112370054 -4140.832118274144
  endloop
endfacet
facet normal -0.957703672841936 0.11595543410560323 -0.26335909387459366
  outer loop
    vertex -107.83209833264927 -1158.885497081179 -4061.8859563539013
    vertex -129.60087493274364 -1517.9823112370054 -4140.832118274144
    vertex -110.01434409157979 -1160.287128817738 -4054.5673635779845
  endloop
endfacet
facet normal 0.0724421772327372 0.2300802771694778 -0.9704716363786202
  outer loop
    vertex -110.01434409157979 -1160.287128817738 -4054.5673635779845
    vertex -129.60087493274364 -1517.9823112370054 -4140.832118274144
    vertex -137.09194800131272 -1515.9410538337756 -4140.907356509915
  endloop
endfacet
facet normal -0.969737910440595 0.014667323882109526 0.2437073135226887
  outer loop
    vertex -110.01434409157979 -1160.287128817738 -4054.5673635779845
    vertex -137.09194800131272 -1515.9410538337756 -4140.907356509915
    vertex -108.20316873072314 -1162.1435802416984 -4047.2487708020676
  endloop
endfacet
facet normal -0.16676900418125856 0.26502792325219743 -0.9497095867374503
  outer loop
    vertex -108.20316873072314 -1162.1435802416984 -4047.2487708020676
    vertex -137.09194800131272 -1515.9410538337756 -4140.907356509915
    vertex -144.5830210698818 -1517.8248563225893 -4140.117621895312
  endloop
endfacet
facet normal -0.7231976877658002 -0.10428929596911443 0.6827216469077765
  outer loop
    vertex -108.20316873072314 -1162.1435802416984 -4047.2487708020676
    vertex -144.5830210698818 -1517.8248563225893 -4140.117621895312
    vertex -102.883875225372 -1163.957416693223 -4041.89118905019
  endloop
endfacet
facet normal -0.4929950243291954 0.2861602597579238 -0.8216253475410392
  outer loop
    vertex -102.883875225372 -1163.957416693223 -4041.89118905019
    vertex -144.5830210698818 -1517.8248563225893 -4140.117621895312
    vertex -150.06686715928524 -1523.1289553478687 -4138.674523182553
  endloop
endfacet
facet normal -0.28474646850439295 -0.21436052389618002 0.9343281085728032
  outer loop
    vertex -102.883875225372 -1163.957416693223 -4041.89118905019
    vertex -150.06686715928524 -1523.1289553478687 -4138.674523182553
    vertex -95.48176397458931 -1165.242622159923 -4039.9301780261508
  endloop
endfacet
facet normal -0.951153019643962 0.2080114162681261 -0.22812098527820945
  outer loop
    vertex -95.48176397458931 -1165.242622159923 -4039.9301780261508
    vertex -150.06686715928524 -1523.1289553478687 -4138.674523182553
    vertex -152.07409413845087 -1530.4321218592154 -4136.964737506319
  endloop
endfacet
facet normal 0.22800502846189985 -0.28288472668098685 0.9316597761021519
  outer loop
    vertex -95.48176397458931 -1165.242622159923 -4039.9301780261508
    vertex -152.07409413845087 -1530.4321218592154 -4136.964737506319
    vertex -87.98022471030762 -1165.6548268748884 -4041.89118905019
  endloop
endfacet
facet normal -0.720094157288786 -0.05377865053706368 0.691789174087717
  outer loop
    vertex -87.98022471030762 -1165.6548268748884 -4041.89118905019
    vertex -152.07409413845087 -1530.4321218592154 -4136.964737506319
    vertex -150.06686715928524 -1537.7774782877243 -4135.446400557788
  endloop
endfacet
facet normal 0.6784224688881125 -0.2835802794764262 0.6777353309366644
  outer loop
    vertex -87.98022471030762 -1165.6548268748884 -4041.89118905019
    vertex -150.06686715928524 -1537.7774782877243 -4135.446400557788
    vertex -82.38928882038161 -1165.0835809176278 -4047.2487708020676
  endloop
endfacet
facet normal -0.3180283545359588 -0.16326005451301567 0.9339186904177246
  outer loop
    vertex -82.38928882038161 -1165.0835809176278 -4047.2487708020676
    vertex -150.06686715928524 -1537.7774782877243 -4135.446400557788
    vertex -144.5830210698818 -1543.1968423102576 -4134.526349496156
  endloop
endfacet
facet normal 0.9469657811910291 -0.21158419460400651 0.24184279573110679
  outer loop
    vertex -82.38928882038161 -1165.0835809176278 -4047.2487708020676
    vertex -144.5830210698818 -1543.1968423102576 -4134.526349496156
    vertex -80.20704306145107 -1163.6819491810688 -4054.5673635779845
  endloop
endfacet
facet normal -0.06309919821163794 -0.19549079671963557 0.9786735102080625
  outer loop
    vertex -80.20704306145107 -1163.6819491810688 -4054.5673635779845
    vertex -144.5830210698818 -1543.1968423102576 -4134.526349496156
    vertex -137.09194800131272 -1545.2380997134874 -4134.451111260385
  endloop
endfacet
facet normal 0.25850605798842213 -0.9460309606593325 0.19544830379736478
  outer loop
    vertex -137.09194800131272 -1545.2380997134874 -4134.451111260385
    vertex -164.02904831202486 -1663.6622874483721 -4672.033389703212
    vertex -129.60087493274364 -1543.3542972246737 -4135.240845874988
  endloop
endfacet
facet normal 0.2909977534361133 -0.9373776128569936 0.19142496809366136
  outer loop
    vertex -129.60087493274364 -1543.3542972246737 -4135.240845874988
    vertex -164.02904831202486 -1663.6622874483721 -4672.033389703212
    vertex -156.8254254424633 -1661.1361316158745 -4670.613910023869
  endloop
endfacet
facet normal 0.7062241130351835 -0.6981399691543841 0.1176778893283869
  outer loop
    vertex -129.60087493274364 -1543.3542972246737 -4135.240845874988
    vertex -156.8254254424633 -1661.1361316158745 -4670.613910023869
    vertex -124.11702884334018 -1538.0501981993943 -4136.683944587748
  endloop
endfacet
facet normal 0.7305676477921322 -0.6738268246826458 0.1105817450467043
  outer loop
    vertex -124.11702884334018 -1538.0501981993943 -4136.683944587748
    vertex -156.8254254424633 -1661.1361316158745 -4670.613910023869
    vertex -151.55200750337914 -1655.438298181996 -4670.733600025641
  endloop
endfacet
facet normal 0.9647053881976717 -0.26320088482406573 0.0082950714408318
  outer loop
    vertex -124.11702884334018 -1538.0501981993943 -4136.683944587748
    vertex -151.55200750337914 -1655.438298181996 -4670.733600025641
    vertex -122.10980186417456 -1530.7470316880476 -4138.3937302639815
  endloop
endfacet
facet normal 0.9674398941793342 -0.2530352589537116 0.005762714334993747
  outer loop
    vertex -122.10980186417456 -1530.7470316880476 -4138.3937302639815
    vertex -151.55200750337914 -1655.438298181996 -4670.733600025641
    vertex -149.62180257290174 -1648.0955170139514 -4672.360388869214
  endloop
endfacet
facet normal 0.9647126268719746 0.24233860778758676 -0.10296381271761793
  outer loop
    vertex -122.10980186417456 -1530.7470316880476 -4138.3937302639815
    vertex -149.62180257290174 -1648.0955170139514 -4672.360388869214
    vertex -124.11702884334018 -1523.4016752595387 -4139.912067212512
  endloop
endfacet
facet normal 0.9685459427924874 0.22795388102470535 -0.09977867921548245
  outer loop
    vertex -124.11702884334018 -1523.4016752595387 -4139.912067212512
    vertex -149.62180257290174 -1648.0955170139514 -4672.360388869214
    vertex -151.55200750337914 -1641.0752803959167 -4675.058379797695
  endloop
endfacet
facet normal 0.7062383258633718 0.682997685377326 -0.18639095699876926
  outer loop
    vertex -124.11702884334018 -1523.4016752595387 -4139.912067212512
    vertex -151.55200750337914 -1641.0752803959167 -4675.058379797695
    vertex -129.60087493274364 -1517.9823112370054 -4140.832118274144
  endloop
endfacet
facet normal 0.7187244795344947 0.6704999320504014 -0.1840243561006985
  outer loop
    vertex -129.60087493274364 -1517.9823112370054 -4140.832118274144
    vertex -151.55200750337914 -1641.0752803959167 -4675.058379797695
    vertex -156.8254254424633 -1636.2586550603696 -4678.104648320612
  endloop
endfacet
facet normal 0.25851307279569247 0.9405848258812254 -0.22016170537973648
  outer loop
    vertex -129.60087493274364 -1517.9823112370054 -4140.832118274144
    vertex -156.8254254424633 -1636.2586550603696 -4678.104648320612
    vertex -137.09194800131272 -1515.9410538337756 -4140.907356509915
  endloop
endfacet
facet normal 0.25184680777823804 0.9423561549006042 -0.22031355549048642
  outer loop
    vertex -137.09194800131272 -1515.9410538337756 -4140.907356509915
    vertex -156.8254254424633 -1636.2586550603696 -4678.104648320612
    vertex -164.02904831202486 -1634.9362518762134 -4680.682949247321
  endloop
endfacet
facet normal -0.25851588683084586 0.9459876458067146 -0.195644857425722
  outer loop
    vertex -137.09194800131272 -1515.9410538337756 -4140.907356509915
    vertex -164.02904831202486 -1634.9362518762134 -4680.682949247321
    vertex -144.5830210698818 -1517.8248563225893 -4140.117621895312
  endloop
endfacet
facet normal -0.29071559324514623 0.9372268163589692 -0.1925885213135866
  outer loop
    vertex -144.5830210698818 -1517.8248563225893 -4140.117621895312
    vertex -164.02904831202486 -1634.9362518762134 -4680.682949247321
    vertex -171.2326711815864 -1637.462407708711 -4682.102428926664
  endloop
endfacet
facet normal -0.7063051827557854 0.6977827337335647 -0.11929897449529858
  outer loop
    vertex -144.5830210698818 -1517.8248563225893 -4140.117621895312
    vertex -171.2326711815864 -1637.462407708711 -4682.102428926664
    vertex -150.06686715928524 -1523.1289553478687 -4138.674523182553
  endloop
endfacet
facet normal -0.7303734025276133 0.6735905428014971 -0.11327168017038329
  outer loop
    vertex -150.06686715928524 -1523.1289553478687 -4138.674523182553
    vertex -171.2326711815864 -1637.462407708711 -4682.102428926664
    vertex -176.50608912067057 -1643.1602411425895 -4681.982738924892
  endloop
endfacet
facet normal -0.964843728111072 0.2625913885835104 -0.011060875485767957
  outer loop
    vertex -150.06686715928524 -1523.1289553478687 -4138.674523182553
    vertex -176.50608912067057 -1643.1602411425895 -4681.982738924892
    vertex -152.07409413845087 -1530.4321218592154 -4136.964737506319
  endloop
endfacet
facet normal -0.9675842916971911 0.2523939183710132 -0.008828840816965718
  outer loop
    vertex -152.07409413845087 -1530.4321218592154 -4136.964737506319
    vertex -176.50608912067057 -1643.1602411425895 -4681.982738924892
    vertex -178.43629405114797 -1650.5030223106342 -4680.355950081319
  endloop
endfacet
facet normal -0.9648369638507561 -0.24288643652201353 0.10047791867317322
  outer loop
    vertex -152.07409413845087 -1530.4321218592154 -4136.964737506319
    vertex -178.43629405114797 -1650.5030223106342 -4680.355950081319
    vertex -150.06686715928524 -1537.7774782877243 -4135.446400557788
  endloop
endfacet
facet normal -0.9685676330805428 -0.2287410771432156 0.09774589390923925
  outer loop
    vertex -150.06686715928524 -1537.7774782877243 -4135.446400557788
    vertex -178.43629405114797 -1650.5030223106342 -4680.355950081319
    vertex -176.50608912067057 -1657.5232589286688 -4677.657959152838
  endloop
endfacet
facet normal -0.7062913989508419 -0.6832315648315235 0.1853296754055604
  outer loop
    vertex -150.06686715928524 -1537.7774782877243 -4135.446400557788
    vertex -176.50608912067057 -1657.5232589286688 -4677.657959152838
    vertex -144.5830210698818 -1543.1968423102576 -4134.526349496156
  endloop
endfacet
facet normal -0.7186263106158185 -0.6707676667981842 0.18343108479431014
  outer loop
    vertex -144.5830210698818 -1543.1968423102576 -4134.526349496156
    vertex -176.50608912067057 -1657.5232589286688 -4677.657959152838
    vertex -171.2326711815864 -1662.339884264216 -4674.611690629921
  endloop
endfacet
facet normal -0.25850890525522224 -0.9405664598546326 0.22024504648293539
  outer loop
    vertex -144.5830210698818 -1543.1968423102576 -4134.526349496156
    vertex -171.2326711815864 -1662.339884264216 -4674.611690629921
    vertex -137.09194800131272 -1545.2380997134874 -4134.451111260385
  endloop
endfacet
facet normal -0.2518177281259148 -0.9423865613458084 0.22021671325384337
  outer loop
    vertex -137.09194800131272 -1545.2380997134874 -4134.451111260385
    vertex -171.2326711815864 -1662.339884264216 -4674.611690629921
    vertex -164.02904831202486 -1663.6622874483721 -4672.033389703212
  endloop
endfacet
facet normal 0.2485913056505083 -0.9041370474693241 0.34747454892182933
  outer loop
    vertex -164.02904831202486 -1663.6622874483721 -4672.033389703212
    vertex -26.934200278352893 -1800.0610149653153 -5125.026941417416
    vertex -156.8254254424633 -1661.1361316158745 -4670.613910023869
  endloop
endfacet
facet normal 0.24859130565050702 -0.9041370474693243 0.34747454892182966
  outer loop
    vertex -156.8254254424633 -1661.1361316158745 -4670.613910023869
    vertex -26.934200278352893 -1800.0610149653153 -5125.026941417416
    vertex -19.730577408791344 -1797.5348591328177 -5123.607461738073
  endloop
endfacet
facet normal 0.6791640773569732 -0.6203337076217815 0.3923292586795758
  outer loop
    vertex -156.8254254424633 -1661.1361316158745 -4670.613910023869
    vertex -19.730577408791344 -1797.5348591328177 -5123.607461738073
    vertex -151.55200750337914 -1655.438298181996 -4670.733600025641
  endloop
endfacet
facet normal 0.6791640773569747 -0.6203337076217795 0.3923292586795762
  outer loop
    vertex -151.55200750337914 -1655.438298181996 -4670.733600025641
    vertex -19.730577408791344 -1797.5348591328177 -5123.607461738073
    vertex -14.457159469707179 -1791.8370256989392 -5123.727151739845
  endloop
endfacet
facet normal 0.9277553830074814 -0.17031245177910562 0.33205966040702906
  outer loop
    vertex -151.55200750337914 -1655.438298181996 -4670.733600025641
    vertex -14.457159469707179 -1791.8370256989392 -5123.727151739845
    vertex -149.62180257290174 -1648.0955170139514 -4672.360388869214
  endloop
endfacet
facet normal 0.9277553830074824 -0.17031245177910165 0.33205966040702795
  outer loop
    vertex -149.62180257290174 -1648.0955170139514 -4672.360388869214
    vertex -14.457159469707179 -1791.8370256989392 -5123.727151739845
    vertex -12.526954539229795 -1784.4942445308945 -5125.353940583418
  endloop
endfacet
facet normal 0.9277553830074763 0.3253438879786849 0.18281494428947492
  outer loop
    vertex -149.62180257290174 -1648.0955170139514 -4672.360388869214
    vertex -12.526954539229795 -1784.4942445308945 -5125.353940583418
    vertex -151.55200750337914 -1641.0752803959167 -4675.058379797695
  endloop
endfacet
facet normal 0.9277553830074771 0.3253438879786822 0.18281494428947637
  outer loop
    vertex -151.55200750337914 -1641.0752803959167 -4675.058379797695
    vertex -12.526954539229795 -1784.4942445308945 -5125.353940583418
    vertex -14.457159469707177 -1777.4740079128599 -5128.051931511899
  endloop
endfacet
facet normal 0.6791640773569958 0.733824595690208 -0.015414888514790134
  outer loop
    vertex -151.55200750337914 -1641.0752803959167 -4675.058379797695
    vertex -14.457159469707177 -1777.4740079128599 -5128.051931511899
    vertex -156.8254254424633 -1636.2586550603696 -4678.104648320612
  endloop
endfacet
facet normal 0.6791640773569958 0.7338245956902081 -0.015414888514789785
  outer loop
    vertex -156.8254254424633 -1636.2586550603696 -4678.104648320612
    vertex -14.457159469707177 -1777.4740079128599 -5128.051931511899
    vertex -19.730577408791344 -1772.6573825773128 -5131.098200034816
  endloop
endfacet
facet normal 0.24859130565048104 0.9456775956004431 -0.2095143143901006
  outer loop
    vertex -156.8254254424633 -1636.2586550603696 -4678.104648320612
    vertex -19.730577408791344 -1772.6573825773128 -5131.098200034816
    vertex -164.02904831202486 -1634.9362518762134 -4680.682949247321
  endloop
endfacet
facet normal 0.2485913056504812 0.945677595600443 -0.20951431439010132
  outer loop
    vertex -164.02904831202486 -1634.9362518762134 -4680.682949247321
    vertex -19.730577408791344 -1772.6573825773128 -5131.098200034816
    vertex -26.934200278352893 -1771.3349793931566 -5133.676500961525
  endloop
endfacet
facet normal -0.2485913056505083 0.9041370474693241 -0.34747454892182933
  outer loop
    vertex -164.02904831202486 -1634.9362518762134 -4680.682949247321
    vertex -26.934200278352893 -1771.3349793931566 -5133.676500961525
    vertex -171.2326711815864 -1637.462407708711 -4682.102428926664
  endloop
endfacet
facet normal -0.24859130565050755 0.9041370474693243 -0.34747454892182944
  outer loop
    vertex -171.2326711815864 -1637.462407708711 -4682.102428926664
    vertex -26.934200278352893 -1771.3349793931566 -5133.676500961525
    vertex -34.13782314791444 -1773.8611352256542 -5135.095980640868
  endloop
endfacet
facet normal -0.6791640773569732 0.6203337076217815 -0.3923292586795758
  outer loop
    vertex -171.2326711815864 -1637.462407708711 -4682.102428926664
    vertex -34.13782314791444 -1773.8611352256542 -5135.095980640868
    vertex -176.50608912067057 -1643.1602411425895 -4681.982738924892
  endloop
endfacet
facet normal -0.6791640773569739 0.6203337076217807 -0.39232925867957574
  outer loop
    vertex -176.50608912067057 -1643.1602411425895 -4681.982738924892
    vertex -34.13782314791444 -1773.8611352256542 -5135.095980640868
    vertex -39.4112410869986 -1779.5589686595326 -5134.976290639096
  endloop
endfacet
facet normal -0.9277553830074814 0.17031245177910562 -0.33205966040702906
  outer loop
    vertex -176.50608912067057 -1643.1602411425895 -4681.982738924892
    vertex -39.4112410869986 -1779.5589686595326 -5134.976290639096
    vertex -178.43629405114797 -1650.5030223106342 -4680.355950081319
  endloop
endfacet
facet normal -0.9277553830074813 0.1703124517791056 -0.33205966040702917
  outer loop
    vertex -178.43629405114797 -1650.5030223106342 -4680.355950081319
    vertex -39.4112410869986 -1779.5589686595326 -5134.976290639096
    vertex -41.34144601747599 -1786.9017498275773 -5133.349501795523
  endloop
endfacet
facet normal -0.9277553830074763 -0.32534388797868496 -0.18281494428947498
  outer loop
    vertex -178.43629405114797 -1650.5030223106342 -4680.355950081319
    vertex -41.34144601747599 -1786.9017498275773 -5133.349501795523
    vertex -176.50608912067057 -1657.5232589286688 -4677.657959152838
  endloop
endfacet
facet normal -0.9277553830074774 -0.32534388797868163 -0.1828149442894751
  outer loop
    vertex -176.50608912067057 -1657.5232589286688 -4677.657959152838
    vertex -41.34144601747599 -1786.9017498275773 -5133.349501795523
    vertex -39.41124108699861 -1793.921986445612 -5130.651510867042
  endloop
endfacet
facet normal -0.6791640773569958 -0.733824595690208 0.015414888514790165
  outer loop
    vertex -176.50608912067057 -1657.5232589286688 -4677.657959152838
    vertex -39.41124108699861 -1793.921986445612 -5130.651510867042
    vertex -171.2326711815864 -1662.339884264216 -4674.611690629921
  endloop
endfacet
facet normal -0.6791640773569957 -0.733824595690208 0.015414888514790734
  outer loop
    vertex -171.2326711815864 -1662.339884264216 -4674.611690629921
    vertex -39.41124108699861 -1793.921986445612 -5130.651510867042
    vertex -34.137823147914446 -1798.738611781159 -5127.605242344125
  endloop
endfacet
facet normal -0.24859130565048107 -0.9456775956004431 0.20951431439010063
  outer loop
    vertex -171.2326711815864 -1662.339884264216 -4674.611690629921
    vertex -34.137823147914446 -1798.738611781159 -5127.605242344125
    vertex -164.02904831202486 -1663.6622874483721 -4672.033389703212
  endloop
endfacet
facet normal -0.24859130565048038 -0.9456775956004432 0.20951431439010126
  outer loop
    vertex -164.02904831202486 -1663.6622874483721 -4672.033389703212
    vertex -34.137823147914446 -1798.738611781159 -5127.605242344125
    vertex -26.934200278352893 -1800.0610149653153 -5125.026941417416
  endloop
endfacet
endsolid pipe
