solid pipe
facet normal 0.9656460721285444 -0.02406577977429132 -0.2587440852011291
  outer loop
    vertex 15 0 0
    vertex 0 -601.8413959372638 -0.00351153244412111
    vertex 12.99038105676658 0 -7.499999999999999
  endloop
endfacet
facet normal -0.02739607887006006 0.013041513093148667 0.9995395809065227
  outer loop
    vertex 12.99038105676658 0 -7.499999999999999
    vertex 0 -601.8413959372638 -0.00351153244412111
    vertex 7.497868011075114 -599.8318189103929 0.1757752729053584
  endloop
endfacet
facet normal 0.7070215995100425 -0.015521457809183953 -0.7070215995100424
  outer loop
    vertex 12.99038105676658 0 -7.499999999999999
    vertex 7.497868011075114 -599.8318189103929 0.1757752729053584
    vertex 7.500000000000002 0 -12.990381056766578
  endloop
endfacet
facet normal -0.0459793897409244 0.02192141538151317 0.9987018310120009
  outer loop
    vertex 7.500000000000002 0 -12.990381056766578
    vertex 7.497868011075114 -599.8318189103929 0.1757752729053584
    vertex 12.986688343627504 -594.3414686486683 0.3079632358304869
  endloop
endfacet
facet normal 0.25877123738519225 -0.01921966574471223 -0.965747405459004
  outer loop
    vertex 7.500000000000002 0 -12.990381056766578
    vertex 12.986688343627504 -594.3414686486683 0.3079632358304869
    vertex 9.18485099360515e-16 0 -15
  endloop
endfacet
facet normal -0.11103609840454229 0.023163755355016892 0.9935463880911397
  outer loop
    vertex 9.18485099360515e-16 0 -15
    vertex 12.986688343627504 -594.3414686486683 0.3079632358304869
    vertex 14.99573602215023 -586.8414800708829 0.35763269841636114
  endloop
endfacet
facet normal -0.2586875234947343 -0.03187573864781631 -0.965434980966516
  outer loop
    vertex 9.18485099360515e-16 0 -15
    vertex 14.99573602215023 -586.8414800708829 0.35763269841636114
    vertex -7.4999999999999964 0 -12.99038105676658
  endloop
endfacet
facet normal -0.07206882662181115 -0.0254416470248345 -0.9970751259689609
  outer loop
    vertex -7.4999999999999964 0 -12.99038105676658
    vertex 14.99573602215023 -586.8414800708829 0.35763269841636114
    vertex 12.986688343627506 -579.341469059697 0.31147476827460807
  endloop
endfacet
facet normal -0.7065062422082781 -0.041205089994748374 -0.7065062422082784
  outer loop
    vertex -7.4999999999999964 0 -12.99038105676658
    vertex 12.986688343627506 -579.341469059697 0.31147476827460807
    vertex -12.99038105676658 0 -7.499999999999999
  endloop
endfacet
facet normal 0.010601589035114206 -0.013006106431266545 -0.9998592138423436
  outer loop
    vertex -12.99038105676658 0 -7.499999999999999
    vertex 12.986688343627506 -579.341469059697 0.31147476827460807
    vertex 7.497868011075114 -573.8510575087823 0.18185742551100267
  endloop
endfacet
facet normal -0.965230968181381 -0.03792390541652212 -0.2586328584337118
  outer loop
    vertex -12.99038105676658 0 -7.499999999999999
    vertex 7.497868011075114 -573.8510575087823 0.18185742551100267
    vertex -15 0 -1.83697019872103e-15
  endloop
endfacet
facet normal 0.023946101945603263 0.0006219924027248074 -0.9997130574955304
  outer loop
    vertex -15 0 -1.83697019872103e-15
    vertex 7.497868011075114 -573.8510575087823 0.18185742551100267
    vertex 1.8364480120384943e-15 -571.841396759321 0.003511532444121154
  endloop
endfacet
facet normal -0.9656159636823181 -0.025327531335423894 0.2587360176672772
  outer loop
    vertex -15 0 -1.83697019872103e-15
    vertex 1.8364480120384943e-15 -571.841396759321 0.003511532444121154
    vertex -12.990381056766582 0 7.499999999999996
  endloop
endfacet
facet normal 0.020268655897485506 0.013565922457503477 -0.9997025294236213
  outer loop
    vertex -12.990381056766582 0 7.499999999999996
    vertex 1.8364480120384943e-15 -571.841396759321 0.003511532444121154
    vertex -7.497868011075111 -573.8509737861918 -0.17577527290535833
  endloop
endfacet
facet normal -0.7070137133388084 -0.016224003875117608 0.7070137133388077
  outer loop
    vertex -12.990381056766582 0 7.499999999999996
    vertex -7.497868011075111 -573.8509737861918 -0.17577527290535833
    vertex -7.500000000000007 0 12.990381056766577
  endloop
endfacet
facet normal 0.001132918445623422 0.022937464432451114 -0.9997362598311644
  outer loop
    vertex -7.500000000000007 0 12.990381056766577
    vertex -7.497868011075111 -573.8509737861918 -0.17577527290535833
    vertex -12.9866883436275 -579.3413240479165 -0.30796323583048685
  endloop
endfacet
facet normal -0.2587687304187273 -0.0197171049698156 0.9657380493327832
  outer loop
    vertex -7.500000000000007 0 12.990381056766577
    vertex -12.9866883436275 -579.3413240479165 -0.30796323583048685
    vertex -2.7554552980815444e-15 0 15
  endloop
endfacet
facet normal -0.08037461317989744 0.028128773600638205 -0.9963677502066725
  outer loop
    vertex -2.7554552980815444e-15 0 15
    vertex -12.9866883436275 -579.3413240479165 -0.30796323583048685
    vertex -14.99573602215023 -586.8413126257019 -0.35763269841636114
  endloop
endfacet
facet normal 0.2586875234197366 -0.03187574773377453 0.9654349806866208
  outer loop
    vertex -2.7554552980815444e-15 0 15
    vertex -14.99573602215023 -586.8413126257019 -0.35763269841636114
    vertex 7.500000000000002 0 12.990381056766578
  endloop
endfacet
facet normal -0.09394593239131233 -0.019039501913379577 0.995395227612639
  outer loop
    vertex 7.500000000000002 0 12.990381056766578
    vertex -14.99573602215023 -586.8413126257019 -0.35763269841636114
    vertex -12.986688343627504 -594.3413236368878 -0.31147476827460807
  endloop
endfacet
facet normal 0.7065361360159943 -0.0401668645425066 0.7065361360159949
  outer loop
    vertex 7.500000000000002 0 12.990381056766578
    vertex -12.986688343627504 -594.3413236368878 -0.31147476827460807
    vertex 12.990381056766577 0 7.500000000000007
  endloop
endfacet
facet normal -0.035197589372061085 -0.011595658193000735 0.9993130992904411
  outer loop
    vertex 12.990381056766577 0 7.500000000000007
    vertex -12.986688343627504 -594.3413236368878 -0.31147476827460807
    vertex -7.497868011075122 -599.8317351878025 -0.18185742551100284
  endloop
endfacet
facet normal 0.9652897996106751 -0.036283508190545405 0.25864862226768087
  outer loop
    vertex 12.990381056766577 0 7.500000000000007
    vertex -7.497868011075122 -599.8317351878025 -0.18185742551100284
    vertex 15 0 0
  endloop
endfacet
facet normal -0.02362332513374532 0.0005829431599246452 0.9997207603560594
  outer loop
    vertex 15 0 0
    vertex -7.497868011075122 -599.8317351878025 -0.18185742551100284
    vertex 0 -601.8413959372638 -0.00351153244412111
  endloop
endfacet
facet normal 0.25874549380606027 -0.9659272442050559 0.005943764588585024
  outer loop
    vertex 0 -601.8413959372638 -0.00351153244412111
    vertex 53.537178625564366 -601.31481051224 -2245.021851870145
    vertex 7.497868011075114 -599.8318189103929 0.1757752729053584
  endloop
endfacet
facet normal 0.2629274425027876 -0.964796773363102 0.006028771607098847
  outer loop
    vertex 7.497868011075114 -599.8318189103929 0.1757752729053584
    vertex 53.537178625564366 -601.31481051224 -2245.021851870145
    vertex 60.97466072743396 -599.2938286116713 -2245.96422145738
  endloop
endfacet
facet normal 0.7069065512168357 -0.707110700536785 0.016660883322822312
  outer loop
    vertex 7.497868011075114 -599.8318189103929 0.1757752729053584
    vertex 60.97466072743396 -599.2938286116713 -2245.96422145738
    vertex 12.986688343627504 -594.3414686486683 0.3079632358304869
  endloop
endfacet
facet normal 0.7114519418800679 -0.7025351537275532 0.016747900527649878
  outer loop
    vertex 12.986688343627504 -594.3414686486683 0.3079632358304869
    vertex 60.97466072743396 -599.2938286116713 -2245.96422145738
    vertex 66.41927550638667 -593.7954141651588 -2246.6062314107253
  endloop
endfacet
facet normal 0.9656528773147031 -0.2588244127011122 0.022900740681458927
  outer loop
    vertex 12.986688343627504 -594.3414686486683 0.3079632358304869
    vertex 66.41927550638667 -593.7954141651588 -2246.6062314107253
    vertex 14.99573602215023 -586.8414800708829 0.35763269841636114
  endloop
endfacet
facet normal 0.9663598048650421 -0.25617165840589445 0.022908709495976207
  outer loop
    vertex 14.99573602215023 -586.8414800708829 0.35763269841636114
    vertex 66.41927550638667 -593.7954141651588 -2246.6062314107253
    vertex 68.41214282930355 -586.292862883297 -2246.7758556816484
  endloop
endfacet
facet normal 0.9656529791982448 0.2588136630310663 0.023017636585800253
  outer loop
    vertex 14.99573602215023 -586.8414800708829 0.35763269841636114
    vertex 68.41214282930355 -586.292862883297 -2246.7758556816484
    vertex 12.986688343627506 -579.341469059697 0.31147476827460807
  endloop
endfacet
facet normal 0.9664412526887856 0.2558518630518378 0.023046242084876115
  outer loop
    vertex 12.986688343627506 -579.341469059697 0.31147476827460807
    vertex 68.41214282930355 -586.292862883297 -2246.7758556816484
    vertex 66.41927550638667 -578.7964773232338 -2246.4276435837396
  endloop
endfacet
facet normal 0.7069067554921317 0.7071028241185066 0.016983379028331223
  outer loop
    vertex 12.986688343627506 -579.341469059697 0.31147476827460807
    vertex 66.41927550638667 -578.7964773232338 -2246.4276435837396
    vertex 7.497868011075114 -573.8510575087823 0.18185742551100267
  endloop
endfacet
facet normal 0.710594121566493 0.7033946162129671 0.01708824969846689
  outer loop
    vertex 7.497868011075114 -573.8510575087823 0.18185742551100267
    vertex 66.41927550638667 -578.7964773232338 -2246.4276435837396
    vertex 60.97466072743396 -573.3149079419408 -2245.6548982674276
  endloop
endfacet
facet normal 0.2587455961883291 0.9659243564281262 0.006391722151018743
  outer loop
    vertex 7.497868011075114 -573.8510575087823 0.18185742551100267
    vertex 60.97466072743396 -573.3149079419408 -2245.6548982674276
    vertex 1.8364480120384943e-15 -571.841396759321 0.003511532444121154
  endloop
endfacet
facet normal 0.26023062257350976 0.9655250636390593 0.006432305946844411
  outer loop
    vertex 1.8364480120384943e-15 -571.841396759321 0.003511532444121154
    vertex 60.97466072743396 -573.3149079419408 -2245.6548982674276
    vertex 53.537178625564366 -571.3169368283902 -2244.6646762161736
  endloop
endfacet
facet normal -0.25874544990530296 0.965927244635987 -0.005945605371416653
  outer loop
    vertex 1.8364480120384943e-15 -571.841396759321 0.003511532444121154
    vertex 53.537178625564366 -571.3169368283902 -2244.6646762161736
    vertex -7.497868011075111 -573.8509737861918 -0.17577527290535833
  endloop
endfacet
facet normal -0.26293115920048815 0.9647955603965969 -0.006060706271054717
  outer loop
    vertex -7.497868011075111 -573.8509737861918 -0.17577527290535833
    vertex 53.537178625564366 -571.3169368283902 -2244.6646762161736
    vertex 46.099696523694774 -573.3379187289588 -2243.7223066289384
  endloop
endfacet
facet normal -0.7069049978232688 0.7071107157840724 -0.016726017930792057
  outer loop
    vertex -7.497868011075111 -573.8509737861918 -0.17577527290535833
    vertex 46.099696523694774 -573.3379187289588 -2243.7223066289384
    vertex -12.9866883436275 -579.3413240479165 -0.30796323583048685
  endloop
endfacet
facet normal -0.7114570535799777 0.7025273396012882 -0.016858173804808845
  outer loop
    vertex -12.9866883436275 -579.3413240479165 -0.30796323583048685
    vertex 46.099696523694774 -573.3379187289588 -2243.7223066289384
    vertex 40.65508174474208 -578.8363331754714 -2243.080296675593
  endloop
endfacet
facet normal -0.965649609542198 0.25882444477535266 -0.023037759824495782
  outer loop
    vertex -12.9866883436275 -579.3413240479165 -0.30796323583048685
    vertex 40.65508174474208 -578.8363331754714 -2243.080296675593
    vertex -14.99573602215023 -586.8413126257019 -0.35763269841636114
  endloop
endfacet
facet normal -0.9663572101175719 0.2561674401017269 -0.0230648018745261
  outer loop
    vertex -14.99573602215023 -586.8413126257019 -0.35763269841636114
    vertex 40.65508174474208 -578.8363331754714 -2243.080296675593
    vertex 38.66221442182518 -586.3388844573333 -2242.91067240467
  endloop
endfacet
facet normal -0.9656495065450583 -0.2588136289406972 -0.02316324640097952
  outer loop
    vertex -14.99573602215023 -586.8413126257019 -0.35763269841636114
    vertex 38.66221442182518 -586.3388844573333 -2242.91067240467
    vertex -12.986688343627504 -594.3413236368878 -0.31147476827460807
  endloop
endfacet
facet normal -0.9664399005507517 -0.2558457150469559 -0.023170859189185114
  outer loop
    vertex -12.986688343627504 -594.3413236368878 -0.31147476827460807
    vertex 38.66221442182518 -586.3388844573333 -2242.91067240467
    vertex 40.65508174474207 -593.8352700173964 -2243.258884502579
  endloop
endfacet
facet normal -0.7069047923409845 -0.7071028048461501 -0.01706569494797067
  outer loop
    vertex -12.986688343627504 -594.3413236368878 -0.31147476827460807
    vertex 40.65508174474207 -593.8352700173964 -2243.258884502579
    vertex -7.497868011075122 -599.8317351878025 -0.18185742551100284
  endloop
endfacet
facet normal -0.7105968451295899 -0.7033907267219432 -0.01713503001019391
  outer loop
    vertex -7.497868011075122 -599.8317351878025 -0.18185742551100284
    vertex 40.65508174474207 -593.8352700173964 -2243.258884502579
    vertex 46.09969652369477 -599.3168393986895 -2244.031629818891
  endloop
endfacet
facet normal -0.25874534740974264 -0.9659243539860848 -0.006402153573325662
  outer loop
    vertex -7.497868011075122 -599.8317351878025 -0.18185742551100284
    vertex 46.09969652369477 -599.3168393986895 -2244.031629818891
    vertex 0 -601.8413959372638 -0.00351153244412111
  endloop
endfacet
facet normal -0.2602306116263538 -0.9655250671849922 -0.00643221656896688
  outer loop
    vertex 0 -601.8413959372638 -0.00351153244412111
    vertex 46.09969652369477 -599.3168393986895 -2244.031629818891
    vertex 53.537178625564366 -601.31481051224 -2245.021851870145
  endloop
endfacet
facet normal 0.25613220570881373 -0.9654039265284524 -0.048903495193946135
  outer loop
    vertex 53.537178625564366 -601.31481051224 -2245.021851870145
    vertex 25.67158983451452 -598.0803496238875 -2454.8194526664715
    vertex 60.97466072743396 -599.2938286116713 -2245.96422145738
  endloop
endfacet
facet normal 0.24594906126289023 -0.9681329456267987 -0.04719808106142875
  outer loop
    vertex 60.97466072743396 -599.2938286116713 -2245.96422145738
    vertex 25.67158983451452 -598.0803496238875 -2454.8194526664715
    vertex 33.17144111800303 -596.1480407278194 -2455.3735116459447
  endloop
endfacet
facet normal 0.7006722698011275 -0.7059169028472726 -0.10363250747834993
  outer loop
    vertex 60.97466072743396 -599.2938286116713 -2245.96422145738
    vertex 33.17144111800303 -596.1480407278194 -2455.3735116459447
    vertex 66.41927550638667 -593.7954141651588 -2246.6062314107253
  endloop
endfacet
facet normal 0.6725668230752864 -0.7334052042366236 -0.09884672426060812
  outer loop
    vertex 66.41927550638667 -593.7954141651588 -2246.6062314107253
    vertex 33.17144111800303 -596.1480407278194 -2455.3735116459447
    vertex 38.66171330672728 -590.8970369953797 -2456.9773942453353
  endloop
endfacet
facet normal 0.9575646528038542 -0.2572900805236087 -0.12989130134381208
  outer loop
    vertex 66.41927550638667 -593.7954141651588 -2246.6062314107253
    vertex 38.66171330672728 -590.8970369953797 -2456.9773942453353
    vertex 68.41214282930355 -586.292862883297 -2246.7758556816484
  endloop
endfacet
facet normal 0.9440814494357782 -0.3042910238333432 -0.12695349402712794
  outer loop
    vertex 68.41214282930355 -586.292862883297 -2246.7758556816484
    vertex 38.66171330672728 -590.8970369953797 -2456.9773942453353
    vertex 40.67129240149154 -583.7343406361283 -2459.201341417382
  endloop
endfacet
facet normal 0.9577989975031518 0.26028930806769324 -0.12194489119105896
  outer loop
    vertex 68.41214282930355 -586.292862883297 -2246.7758556816484
    vertex 40.67129240149154 -583.7343406361283 -2459.201341417382
    vertex 66.41927550638667 -578.7964773232338 -2246.4276435837396
  endloop
endfacet
facet normal 0.964868046354639 0.23260930325927795 -0.12215795168966909
  outer loop
    vertex 66.41927550638667 -578.7964773232338 -2246.4276435837396
    vertex 40.67129240149154 -583.7343406361283 -2459.201341417382
    vertex 38.66171330672728 -576.5791903551559 -2461.449448313326
  endloop
endfacet
facet normal 0.7011442041568936 0.7081475555025732 -0.08320964254776209
  outer loop
    vertex 66.41927550638667 -578.7964773232338 -2246.4276435837396
    vertex 38.66171330672728 -576.5791903551559 -2461.449448313326
    vertex 60.97466072743396 -573.3149079419408 -2245.6548982674276
  endloop
endfacet
facet normal 0.7005164912638349 0.7087750134238384 -0.0831542290773192
  outer loop
    vertex 60.97466072743396 -573.3149079419408 -2245.6548982674276
    vertex 38.66171330672728 -576.5791903551559 -2461.449448313326
    vertex 33.17144111800303 -571.3488028919725 -2463.1193365059
  endloop
endfacet
facet normal 0.2563756163591088 0.9662781842225023 -0.024041922388837348
  outer loop
    vertex 60.97466072743396 -573.3149079419408 -2245.6548982674276
    vertex 33.17144111800303 -571.3488028919725 -2463.1193365059
    vertex 53.537178625564366 -571.3169368283902 -2244.6646762161736
  endloop
endfacet
facet normal 0.24789304408096444 0.9685083421703992 -0.023251448183244216
  outer loop
    vertex 53.537178625564366 -571.3169368283902 -2244.6646762161736
    vertex 33.17144111800303 -571.3488028919725 -2463.1193365059
    vertex 25.671589834514524 -569.4446563434399 -2463.7635608024534
  endloop
endfacet
facet normal -0.25716489807681797 0.965499197627057 0.040957472805934855
  outer loop
    vertex 53.537178625564366 -571.3169368283902 -2244.6646762161736
    vertex 25.671589834514524 -569.4446563434399 -2463.7635608024534
    vertex 46.099696523694774 -573.3379187289588 -2243.7223066289384
  endloop
endfacet
facet normal -0.24652496102477756 0.9683098109477677 0.040019415463375285
  outer loop
    vertex 46.099696523694774 -573.3379187289588 -2243.7223066289384
    vertex 25.671589834514524 -569.4446563434399 -2463.7635608024534
    vertex 18.171738551026014 -571.376965239508 -2463.20950182298
  endloop
endfacet
facet normal -0.701717148835445 0.7060131339666957 0.09559548993952863
  outer loop
    vertex 46.099696523694774 -573.3379187289588 -2243.7223066289384
    vertex 18.171738551026014 -571.376965239508 -2463.20950182298
    vertex 40.65508174474208 -578.8363331754714 -2243.080296675593
  endloop
endfacet
facet normal -0.6737222288588975 0.7330264285544216 0.0936515530151464
  outer loop
    vertex 40.65508174474208 -578.8363331754714 -2243.080296675593
    vertex 18.171738551026014 -571.376965239508 -2463.20950182298
    vertex 12.68146636230177 -576.6279689719477 -2461.6056192235897
  endloop
endfacet
facet normal -0.958167106366551 0.25734531906196195 0.12525646903073503
  outer loop
    vertex 40.65508174474208 -578.8363331754714 -2243.080296675593
    vertex 12.68146636230177 -576.6279689719477 -2461.6056192235897
    vertex 38.66221442182518 -586.3388844573333 -2242.91067240467
  endloop
endfacet
facet normal -0.9443532449439994 0.3039736971989995 0.1256858789797388
  outer loop
    vertex 38.66221442182518 -586.3388844573333 -2242.91067240467
    vertex 12.68146636230177 -576.6279689719477 -2461.6056192235897
    vertex 10.6718872675375 -583.7906653311991 -2459.381672051543
  endloop
endfacet
facet normal -0.9579475737759946 -0.26027569593739264 0.12080152317330718
  outer loop
    vertex 38.66221442182518 -586.3388844573333 -2242.91067240467
    vertex 10.6718872675375 -583.7906653311991 -2459.381672051543
    vertex 40.65508174474207 -593.8352700173964 -2243.258884502579
  endloop
endfacet
facet normal -0.9648248760178582 -0.23231529188310643 0.1230551249415965
  outer loop
    vertex 40.65508174474207 -593.8352700173964 -2243.258884502579
    vertex 10.6718872675375 -583.7906653311991 -2459.381672051543
    vertex 12.681466362301766 -590.9458156121715 -2457.133565155599
  endloop
endfacet
facet normal -0.7012810211224455 -0.7081350176251724 0.08215671747615569
  outer loop
    vertex 40.65508174474207 -593.8352700173964 -2243.258884502579
    vertex 12.681466362301766 -590.9458156121715 -2457.133565155599
    vertex 46.09969652369477 -599.3168393986895 -2244.031629818891
  endloop
endfacet
facet normal -0.7003999883672769 -0.709026484638913 0.08198353722366027
  outer loop
    vertex 46.09969652369477 -599.3168393986895 -2244.031629818891
    vertex 12.681466362301766 -590.9458156121715 -2457.133565155599
    vertex 18.171738551026003 -596.1762030753549 -2455.463676963025
  endloop
endfacet
facet normal -0.25695425597919774 -0.9662250251488342 0.019588545385292325
  outer loop
    vertex 46.09969652369477 -599.3168393986895 -2244.031629818891
    vertex 18.171738551026003 -596.1762030753549 -2455.463676963025
    vertex 53.537178625564366 -601.31481051224 -2245.021851870145
  endloop
endfacet
facet normal -0.24749133122343564 -0.9687240557059649 0.017937248000695554
  outer loop
    vertex 53.537178625564366 -601.31481051224 -2245.021851870145
    vertex 18.171738551026003 -596.1762030753549 -2455.463676963025
    vertex 25.67158983451452 -598.0803496238875 -2454.8194526664715
  endloop
endfacet
facet normal 0.2588187889261534 -0.9217469368780016 0.28878264985074914
  outer loop
    vertex 25.67158983451452 -598.0803496238875 -2454.8194526664715
    vertex 26.840211349860397 -652.6217355383637 -2629.953992886264
    vertex 33.17144111800303 -596.1480407278194 -2455.3735116459447
  endloop
endfacet
facet normal 0.260870102798399 -0.9212428851137425 0.28854520632521446
  outer loop
    vertex 33.17144111800303 -596.1480407278194 -2455.3735116459447
    vertex 26.840211349860397 -652.6217355383637 -2629.953992886264
    vertex 34.33586239030291 -650.6983617680123 -2630.589930867863
  endloop
endfacet
facet normal 0.7070965124096867 -0.6738060694449604 0.2144758795696872
  outer loop
    vertex 33.17144111800303 -596.1480407278194 -2455.3735116459447
    vertex 34.33586239030291 -650.6983617680123 -2630.589930867863
    vertex 38.66171330672728 -590.8970369953797 -2456.9773942453353
  endloop
endfacet
facet normal 0.7056209936091973 -0.6751880376916856 0.21498866745951994
  outer loop
    vertex 38.66171330672728 -590.8970369953797 -2456.9773942453353
    vertex 34.33586239030291 -650.6983617680123 -2630.589930867863
    vertex 39.82305978771334 -645.6637934237407 -2632.788192591524
  endloop
endfacet
facet normal 0.9659078353176814 -0.245291063944321 0.08279098755887504
  outer loop
    vertex 38.66171330672728 -590.8970369953797 -2456.9773942453353
    vertex 39.82305978771334 -645.6637934237407 -2632.788192591524
    vertex 40.67129240149154 -583.7343406361283 -2459.201341417382
  endloop
endfacet
facet normal 0.9655648823379874 -0.24649272088319737 0.08322137073628791
  outer loop
    vertex 40.67129240149154 -583.7343406361283 -2459.201341417382
    vertex 39.82305978771334 -645.6637934237407 -2632.788192591524
    vertex 41.83151343074542 -638.8670390276355 -2635.9597556036397
  endloop
endfacet
facet normal 0.9659062209015192 0.24888356502798 -0.0712891540327776
  outer loop
    vertex 40.67129240149154 -583.7343406361283 -2459.201341417382
    vertex 41.83151343074542 -638.8670390276355 -2635.9597556036397
    vertex 38.66171330672728 -576.5791903551559 -2461.449448313326
  endloop
endfacet
facet normal 0.964957852233683 0.2521940427207441 -0.07248798678901928
  outer loop
    vertex 38.66171330672728 -576.5791903551559 -2461.449448313326
    vertex 41.83151343074542 -638.8670390276355 -2635.9597556036397
    vertex 39.82305978771334 -632.1292834312861 -2639.2548021563694
  endloop
endfacet
facet normal 0.7070933607856836 0.6762487526388107 -0.20665576132123553
  outer loop
    vertex 38.66171330672728 -576.5791903551559 -2461.449448313326
    vertex 39.82305978771334 -632.1292834312861 -2639.2548021563694
    vertex 33.17144111800303 -571.3488028919725 -2463.1193365059
  endloop
endfacet
facet normal 0.7015664753915647 0.6813781058329306 -0.2086345069689688
  outer loop
    vertex 33.17144111800303 -571.3488028919725 -2463.1193365059
    vertex 39.82305978771334 -632.1292834312861 -2639.2548021563694
    vertex 34.33586239030291 -627.2559028055324 -2641.790427186886
  endloop
endfacet
facet normal 0.2588171298350217 0.9223304069257908 -0.28691516823630386
  outer loop
    vertex 33.17144111800303 -571.3488028919725 -2463.1193365059
    vertex 34.33586239030291 -627.2559028055324 -2641.790427186886
    vertex 25.671589834514524 -569.4446563434399 -2463.7635608024534
  endloop
endfacet
facet normal 0.2520473036254086 0.9239385233058388 -0.28776685334935126
  outer loop
    vertex 25.671589834514524 -569.4446563434399 -2463.7635608024534
    vertex 34.33586239030291 -627.2559028055324 -2641.790427186886
    vertex 26.8402113498604 -625.5527155534546 -2642.887212015955
  endloop
endfacet
facet normal -0.25880899327311874 0.9212830343840793 -0.2902679375284468
  outer loop
    vertex 25.671589834514524 -569.4446563434399 -2463.7635608024534
    vertex 26.8402113498604 -625.5527155534546 -2642.887212015955
    vertex 18.171738551026014 -571.376965239508 -2463.20950182298
  endloop
endfacet
facet normal -0.260876603309531 0.9207216088191303 -0.2901984095393942
  outer loop
    vertex 18.171738551026014 -571.376965239508 -2463.20950182298
    vertex 26.8402113498604 -625.5527155534546 -2642.887212015955
    vertex 19.34456030941789 -627.476089323806 -2642.251274034356
  endloop
endfacet
facet normal -0.7070888293632187 0.67344206873883 -0.21564129345400862
  outer loop
    vertex 18.171738551026014 -571.376965239508 -2463.20950182298
    vertex 19.34456030941789 -627.476089323806 -2642.251274034356
    vertex 12.68146636230177 -576.6279689719477 -2461.6056192235897
  endloop
endfacet
facet normal -0.7056752741545582 0.6748161285372462 -0.21597592484555297
  outer loop
    vertex 12.68146636230177 -576.6279689719477 -2461.6056192235897
    vertex 19.34456030941789 -627.476089323806 -2642.251274034356
    vertex 13.857362912007455 -632.5106576680777 -2640.053012310695
  endloop
endfacet
facet normal -0.9659054954424323 0.24518026577034965 -0.08314572238479799
  outer loop
    vertex 12.68146636230177 -576.6279689719477 -2461.6056192235897
    vertex 13.857362912007455 -632.5106576680777 -2640.053012310695
    vertex 10.6718872675375 -583.7906653311991 -2459.381672051543
  endloop
endfacet
facet normal -0.9655722733687436 0.2463817602132037 -0.08346384328414082
  outer loop
    vertex 10.6718872675375 -583.7906653311991 -2459.381672051543
    vertex 13.857362912007455 -632.5106576680777 -2640.053012310695
    vertex 11.848909268975376 -639.3074120641828 -2636.8814492985794
  endloop
endfacet
facet normal -0.9659071183526001 -0.2488410790539137 0.0714251782711108
  outer loop
    vertex 10.6718872675375 -583.7906653311991 -2459.381672051543
    vertex 11.848909268975376 -639.3074120641828 -2636.8814492985794
    vertex 12.681466362301766 -590.9458156121715 -2457.133565155599
  endloop
endfacet
facet normal -0.9649506818209953 -0.252263513061175 0.07234156226700299
  outer loop
    vertex 12.681466362301766 -590.9458156121715 -2457.133565155599
    vertex 11.848909268975376 -639.3074120641828 -2636.8814492985794
    vertex 13.857362912007453 -646.0451676605322 -2633.5864027458497
  endloop
endfacet
facet normal -0.7070921481218287 -0.6763061599765289 0.20647196430086937
  outer loop
    vertex 12.681466362301766 -590.9458156121715 -2457.133565155599
    vertex 13.857362912007453 -646.0451676605322 -2633.5864027458497
    vertex 18.171738551026003 -596.1762030753549 -2455.463676963025
  endloop
endfacet
facet normal -0.7014879343782395 -0.6816997899905088 0.2078462755226726
  outer loop
    vertex 18.171738551026003 -596.1762030753549 -2455.463676963025
    vertex 13.857362912007453 -646.0451676605322 -2633.5864027458497
    vertex 19.34456030941788 -650.918548286286 -2631.050777715333
  endloop
endfacet
facet normal -0.2588105677840316 -0.9226410032610994 0.28592073919997296
  outer loop
    vertex 18.171738551026003 -596.1762030753549 -2455.463676963025
    vertex 19.34456030941788 -650.918548286286 -2631.050777715333
    vertex 25.67158983451452 -598.0803496238875 -2454.8194526664715
  endloop
endfacet
facet normal -0.2519366885973718 -0.9244501549816821 0.2862163794979857
  outer loop
    vertex 25.67158983451452 -598.0803496238875 -2454.8194526664715
    vertex 19.34456030941788 -650.918548286286 -2631.050777715333
    vertex 26.840211349860397 -652.6217355383637 -2629.953992886264
  endloop
endfacet
facet normal 0.2594823877186569 -0.878898427559492 0.4002579724343754
  outer loop
    vertex 26.840211349860397 -652.6217355383637 -2629.953992886264
    vertex 46.11317022116092 -723.4476096137519 -2797.9699910004297
    vertex 34.33586239030291 -650.6983617680123 -2630.589930867863
  endloop
endfacet
facet normal 0.984974768628609 -0.12193104328977229 0.12230096421241289
  outer loop
    vertex 34.33586239030291 -650.6983617680123 -2630.589930867863
    vertex 46.11317022116092 -723.4476096137519 -2797.9699910004297
    vertex 47.41276103450145 -716.8595935198748 -2801.8684106753362
  endloop
endfacet
facet normal 0.7073753015887165 -0.6395260574105052 0.30104252954565663
  outer loop
    vertex 34.33586239030291 -650.6983617680123 -2630.589930867863
    vertex 47.41276103450145 -716.8595935198748 -2801.8684106753362
    vertex 39.82305978771334 -645.6637934237407 -2632.788192591524
  endloop
endfacet
facet normal 0.942517530981228 0.3209960062004594 -0.09285616725023958
  outer loop
    vertex 39.82305978771334 -645.6637934237407 -2632.788192591524
    vertex 47.41276103450145 -716.8595935198748 -2801.8684106753362
    vertex 44.83440693886769 -710.1145028271565 -2804.7222519465945
  endloop
endfacet
facet normal 0.9659472252620017 -0.2317619412369022 0.11503199816895389
  outer loop
    vertex 39.82305978771334 -645.6637934237407 -2632.788192591524
    vertex 44.83440693886769 -710.1145028271565 -2804.7222519465945
    vertex 41.83151343074542 -638.8670390276355 -2635.9597556036397
  endloop
endfacet
facet normal 0.6635958689111285 0.693348178739886 -0.28090714800831895
  outer loop
    vertex 41.83151343074542 -638.8670390276355 -2635.9597556036397
    vertex 44.83440693886769 -710.1145028271565 -2804.7222519465945
    vertex 39.06897583198617 -705.0196791395854 -2805.7668303502433
  endloop
endfacet
facet normal 0.9659429165234146 0.2354034761642939 -0.10742199694665218
  outer loop
    vertex 41.83151343074542 -638.8670390276355 -2635.9597556036397
    vertex 39.06897583198617 -705.0196791395854 -2805.7668303502433
    vertex 39.82305978771334 -632.1292834312861 -2639.2548021563694
  endloop
endfacet
facet normal 0.19649507163592095 0.8978874739327022 -0.3939387909022737
  outer loop
    vertex 39.82305978771334 -632.1292834312861 -2639.2548021563694
    vertex 39.06897583198617 -705.0196791395854 -2805.7668303502433
    vertex 31.661310322963086 -702.9402763498251 -2804.7222519465945
  endloop
endfacet
facet normal 0.7073575357822419 0.6365608224907155 -0.30730381683607144
  outer loop
    vertex 39.82305978771334 -632.1292834312861 -2639.2548021563694
    vertex 31.661310322963086 -702.9402763498251 -2804.7222519465945
    vertex 34.33586239030291 -627.2559028055324 -2641.790427186886
  endloop
endfacet
facet normal -0.3390187506381235 0.8553345978119883 -0.39175121250810435
  outer loop
    vertex 34.33586239030291 -627.2559028055324 -2641.790427186886
    vertex 31.661310322963086 -702.9402763498251 -2804.7222519465945
    vertex 24.596288402741035 -704.433468756131 -2801.8684106753362
  endloop
endfacet
facet normal 0.25947909708783984 0.8636520927082946 -0.4321754978420952
  outer loop
    vertex 34.33586239030291 -627.2559028055324 -2641.790427186886
    vertex 24.596288402741035 -704.433468756131 -2801.8684106753362
    vertex 26.8402113498604 -625.5527155534546 -2642.887212015955
  endloop
endfacet
facet normal -0.7732801035551453 0.5722714493864053 -0.27302613366292766
  outer loop
    vertex 26.8402113498604 -625.5527155534546 -2642.887212015955
    vertex 24.596288402741035 -704.433468756131 -2801.8684106753362
    vertex 19.76697698935171 -709.0991566590892 -2797.9699910004297
  endloop
endfacet
facet normal -0.25762892586309116 0.8555149931064586 -0.44913409259227455
  outer loop
    vertex 26.8402113498604 -625.5527155534546 -2642.887212015955
    vertex 19.76697698935171 -709.0991566590892 -2797.9699910004297
    vertex 19.34456030941789 -627.476089323806 -2642.251274034356
  endloop
endfacet
facet normal -0.9858740785184352 0.14722984112577392 -0.07984782518957947
  outer loop
    vertex 19.34456030941789 -627.476089323806 -2642.251274034356
    vertex 19.76697698935171 -709.0991566590892 -2797.9699910004297
    vertex 18.467386176011182 -715.6871727529663 -2794.071571325523
  endloop
endfacet
facet normal -0.7053831865150352 0.6146472170043082 -0.3530486635164533
  outer loop
    vertex 19.34456030941789 -627.476089323806 -2642.251274034356
    vertex 18.467386176011182 -715.6871727529663 -2794.071571325523
    vertex 13.857362912007455 -632.5106576680777 -2640.053012310695
  endloop
endfacet
facet normal -0.9432350823140956 -0.3032197355778826 0.13551889701440303
  outer loop
    vertex 13.857362912007455 -632.5106576680777 -2640.053012310695
    vertex 18.467386176011182 -715.6871727529663 -2794.071571325523
    vertex 21.045740271644945 -722.4322634456846 -2791.217730054265
  endloop
endfacet
facet normal -0.9638918184096896 0.20620524385440844 -0.16849913889930132
  outer loop
    vertex 13.857362912007455 -632.5106576680777 -2640.053012310695
    vertex 21.045740271644945 -722.4322634456846 -2791.217730054265
    vertex 11.848909268975376 -639.3074120641828 -2636.8814492985794
  endloop
endfacet
facet normal -0.658475250340731 -0.6782906268141295 0.32608613933254976
  outer loop
    vertex 11.848909268975376 -639.3074120641828 -2636.8814492985794
    vertex 21.045740271644945 -722.4322634456846 -2791.217730054265
    vertex 26.81117137852646 -727.5270871332557 -2790.173151650616
  endloop
endfacet
facet normal -0.9639659547205109 -0.26014519903281186 0.05562475671814288
  outer loop
    vertex 11.848909268975376 -639.3074120641828 -2636.8814492985794
    vertex 26.81117137852646 -727.5270871332557 -2790.173151650616
    vertex 13.857362912007453 -646.0451676605322 -2633.5864027458497
  endloop
endfacet
facet normal -0.184199039221969 -0.8780633677909717 0.4416734496132639
  outer loop
    vertex 13.857362912007453 -646.0451676605322 -2633.5864027458497
    vertex 26.81117137852646 -727.5270871332557 -2790.173151650616
    vertex 34.21883688754956 -729.6064899230159 -2791.217730054265
  endloop
endfacet
facet normal -0.7055182517494538 -0.6598112265436004 0.2586370850737073
  outer loop
    vertex 13.857362912007453 -646.0451676605322 -2633.5864027458497
    vertex 34.21883688754956 -729.6064899230159 -2791.217730054265
    vertex 19.34456030941788 -650.918548286286 -2631.050777715333
  endloop
endfacet
facet normal 0.3520028777992962 -0.8267400953617572 0.43885622787223405
  outer loop
    vertex 19.34456030941788 -650.918548286286 -2631.050777715333
    vertex 34.21883688754956 -729.6064899230159 -2791.217730054265
    vertex 41.28385880777159 -728.1132975167101 -2794.071571325523
  endloop
endfacet
facet normal -0.25770012470218806 -0.8862220973624693 0.38496888169687543
  outer loop
    vertex 19.34456030941788 -650.918548286286 -2631.050777715333
    vertex 41.28385880777159 -728.1132975167101 -2794.071571325523
    vertex 26.840211349860397 -652.6217355383637 -2629.953992886264
  endloop
endfacet
facet normal 0.7788530806645982 -0.5409753066820967 0.3173855641006322
  outer loop
    vertex 26.840211349860397 -652.6217355383637 -2629.953992886264
    vertex 41.28385880777159 -728.1132975167101 -2794.071571325523
    vertex 46.11317022116092 -723.4476096137519 -2797.9699910004297
  endloop
endfacet
facet normal 0.9540340570234883 -0.26780651438492503 -0.13453136768910184
  outer loop
    vertex 46.11317022116092 -723.4476096137519 -2797.9699910004297
    vertex 15.365868693535424 -779.904870195303 -2903.6282541625746
    vertex 47.41276103450145 -716.8595935198748 -2801.8684106753362
  endloop
endfacet
facet normal 0.9540340570234882 -0.2678065143849251 -0.13453136768910187
  outer loop
    vertex 47.41276103450145 -716.8595935198748 -2801.8684106753362
    vertex 15.365868693535424 -779.904870195303 -2903.6282541625746
    vertex 16.665459506875955 -773.316854101426 -2907.526673837481
  endloop
endfacet
facet normal 0.9099049514721197 0.19230841451593497 -0.3675465317383457
  outer loop
    vertex 47.41276103450145 -716.8595935198748 -2801.8684106753362
    vertex 16.665459506875955 -773.316854101426 -2907.526673837481
    vertex 44.83440693886769 -710.1145028271565 -2804.7222519465945
  endloop
endfacet
facet normal 0.9099049514721197 0.19230841451593464 -0.3675465317383458
  outer loop
    vertex 44.83440693886769 -710.1145028271565 -2804.7222519465945
    vertex 16.665459506875955 -773.316854101426 -2907.526673837481
    vertex 14.08710541124219 -766.5717634087076 -2910.3805151087395
  endloop
endfacet
facet normal 0.6219675489846992 0.6008944590495754 -0.5020778994274534
  outer loop
    vertex 44.83440693886769 -710.1145028271565 -2804.7222519465945
    vertex 14.08710541124219 -766.5717634087076 -2910.3805151087395
    vertex 39.06897583198617 -705.0196791395854 -2805.7668303502433
  endloop
endfacet
facet normal 0.6219675489846987 0.6008944590495758 -0.5020778994274534
  outer loop
    vertex 39.06897583198617 -705.0196791395854 -2805.7668303502433
    vertex 14.08710541124219 -766.5717634087076 -2910.3805151087395
    vertex 8.321674304360673 -761.4769397211365 -2911.4250935123882
  endloop
endfacet
facet normal 0.1673744440284921 0.8484713185445161 -0.5020778994274528
  outer loop
    vertex 39.06897583198617 -705.0196791395854 -2805.7668303502433
    vertex 8.321674304360673 -761.4769397211365 -2911.4250935123882
    vertex 31.661310322963086 -702.9402763498251 -2804.7222519465945
  endloop
endfacet
facet normal 0.16737444402849255 0.848471318544516 -0.5020778994274528
  outer loop
    vertex 31.661310322963086 -702.9402763498251 -2804.7222519465945
    vertex 8.321674304360673 -761.4769397211365 -2911.4250935123882
    vertex 0.9140087953375888 -759.3975369313763 -2910.3805151087395
  endloop
endfacet
facet normal -0.33206650803878834 0.8687009734344936 -0.36754653173834817
  outer loop
    vertex 31.661310322963086 -702.9402763498251 -2804.7222519465945
    vertex 0.9140087953375888 -759.3975369313763 -2910.3805151087395
    vertex 24.596288402741035 -704.433468756131 -2801.8684106753362
  endloop
endfacet
facet normal -0.3320665080387882 0.8687009734344936 -0.36754653173834806
  outer loop
    vertex 24.596288402741035 -704.433468756131 -2801.8684106753362
    vertex 0.9140087953375888 -759.3975369313763 -2910.3805151087395
    vertex -6.151013124884461 -760.8907293376822 -2907.526673837481
  endloop
endfacet
facet normal -0.7425305074436311 0.6561629040285683 -0.13453136768909918
  outer loop
    vertex 24.596288402741035 -704.433468756131 -2801.8684106753362
    vertex -6.151013124884461 -760.8907293376822 -2907.526673837481
    vertex 19.76697698935171 -709.0991566590892 -2797.9699910004297
  endloop
endfacet
facet normal -0.7425305074436315 0.6561629040285679 -0.13453136768909912
  outer loop
    vertex 19.76697698935171 -709.0991566590892 -2797.9699910004297
    vertex -6.151013124884461 -760.8907293376822 -2907.526673837481
    vertex -10.980324538273782 -765.5564172406404 -2903.6282541625746
  endloop
endfacet
facet normal -0.9540340570234883 0.26780651438492503 0.13453136768910184
  outer loop
    vertex 19.76697698935171 -709.0991566590892 -2797.9699910004297
    vertex -10.980324538273782 -765.5564172406404 -2903.6282541625746
    vertex 18.467386176011182 -715.6871727529663 -2794.071571325523
  endloop
endfacet
facet normal -0.9540340570234883 0.26780651438492487 0.13453136768910176
  outer loop
    vertex 18.467386176011182 -715.6871727529663 -2794.071571325523
    vertex -10.980324538273782 -765.5564172406404 -2903.6282541625746
    vertex -12.279915351614312 -772.1444333345174 -2899.729834487668
  endloop
endfacet
facet normal -0.9099049514721197 -0.19230841451593497 0.3675465317383457
  outer loop
    vertex 18.467386176011182 -715.6871727529663 -2794.071571325523
    vertex -12.279915351614312 -772.1444333345174 -2899.729834487668
    vertex 21.045740271644945 -722.4322634456846 -2791.217730054265
  endloop
endfacet
facet normal -0.9099049514721196 -0.1923084145159351 0.36754653173834595
  outer loop
    vertex 21.045740271644945 -722.4322634456846 -2791.217730054265
    vertex -12.279915351614312 -772.1444333345174 -2899.729834487668
    vertex -9.701561255980552 -778.8895240272358 -2896.87599321641
  endloop
endfacet
facet normal -0.6219675489846992 -0.6008944590495754 0.5020778994274534
  outer loop
    vertex 21.045740271644945 -722.4322634456846 -2791.217730054265
    vertex -9.701561255980552 -778.8895240272358 -2896.87599321641
    vertex 26.81117137852646 -727.5270871332557 -2790.173151650616
  endloop
endfacet
facet normal -0.621967548984699 -0.6008944590495755 0.5020778994274535
  outer loop
    vertex 26.81117137852646 -727.5270871332557 -2790.173151650616
    vertex -9.701561255980552 -778.8895240272358 -2896.87599321641
    vertex -3.936130149099035 -783.9843477148069 -2895.831414812761
  endloop
endfacet
facet normal -0.1673744440284919 -0.8484713185445162 0.5020778994274528
  outer loop
    vertex 26.81117137852646 -727.5270871332557 -2790.173151650616
    vertex -3.936130149099035 -783.9843477148069 -2895.831414812761
    vertex 34.21883688754956 -729.6064899230159 -2791.217730054265
  endloop
endfacet
facet normal -0.16737444402849147 -0.8484713185445162 0.502077899427453
  outer loop
    vertex 34.21883688754956 -729.6064899230159 -2791.217730054265
    vertex -3.936130149099035 -783.9843477148069 -2895.831414812761
    vertex 3.4715353599240584 -786.0637505045671 -2896.87599321641
  endloop
endfacet
facet normal 0.3320665080387892 -0.8687009734344934 0.36754653173834784
  outer loop
    vertex 34.21883688754956 -729.6064899230159 -2791.217730054265
    vertex 3.4715353599240584 -786.0637505045671 -2896.87599321641
    vertex 41.28385880777159 -728.1132975167101 -2794.071571325523
  endloop
endfacet
facet normal 0.332066508038789 -0.8687009734344936 0.36754653173834784
  outer loop
    vertex 41.28385880777159 -728.1132975167101 -2794.071571325523
    vertex 3.4715353599240584 -786.0637505045671 -2896.87599321641
    vertex 10.536557280146093 -784.5705580982612 -2899.729834487668
  endloop
endfacet
facet normal 0.7425305074436306 -0.6561629040285688 0.13453136768909973
  outer loop
    vertex 41.28385880777159 -728.1132975167101 -2794.071571325523
    vertex 10.536557280146093 -784.5705580982612 -2899.729834487668
    vertex 46.11317022116092 -723.4476096137519 -2797.9699910004297
  endloop
endfacet
facet normal 0.7425305074436301 -0.6561629040285694 0.13453136768909973
  outer loop
    vertex 46.11317022116092 -723.4476096137519 -2797.9699910004297
    vertex 10.536557280146093 -784.5705580982612 -2899.729834487668
    vertex 15.365868693535424 -779.904870195303 -2903.6282541625746
  endloop
endfacet
endsolid pipe
